<?xml version="1.0" standalone="no"?>
<!DOCTYPE svg PUBLIC "-//W3C//DTD SVG 20010904//EN"
 "http://www.w3.org/TR/2001/REC-SVG-20010904/DTD/svg10.dtd">
<svg version="1.0" xmlns="http://www.w3.org/2000/svg"
 width="1080.000000pt" height="1082.000000pt" viewBox="0 0 1080.000000 1082.000000"
 preserveAspectRatio="xMidYMid meet">

<g transform="translate(0.000000,1082.000000) scale(0.100000,-0.100000)"
fill="#000000" stroke="none">
<path d="M5545 8380 c-16 -4 -61 -13 -100 -20 -96 -18 -202 -56 -363 -131 -34
-16 -74 -29 -88 -29 -13 0 -35 -6 -47 -14 -12 -7 -52 -16 -88 -19 -42 -4 -90
-17 -130 -35 -35 -16 -68 -31 -74 -33 -5 -2 -41 -22 -80 -43 -249 -141 -521
-446 -688 -773 -30 -60 -64 -126 -76 -148 -38 -75 -80 -170 -117 -265 -56
-146 -64 -168 -89 -265 -13 -49 -37 -127 -53 -171 -16 -45 -32 -92 -35 -105
-6 -28 -44 -170 -57 -214 -5 -16 -11 -41 -15 -55 -3 -14 -10 -41 -15 -60 -5
-19 -18 -75 -30 -125 -12 -49 -25 -106 -30 -125 -5 -19 -12 -48 -15 -65 -3
-16 -10 -48 -16 -70 -12 -49 -25 -104 -39 -170 -5 -27 -15 -70 -21 -95 -5 -25
-14 -65 -19 -90 -5 -25 -18 -88 -29 -140 -12 -52 -25 -115 -30 -140 -5 -25
-16 -81 -25 -125 -9 -44 -21 -107 -27 -140 -22 -124 -30 -164 -60 -310 -17
-82 -36 -175 -41 -205 -5 -30 -13 -75 -18 -100 -4 -25 -15 -99 -25 -164 -9
-66 -18 -123 -21 -127 -10 -17 -27 -119 -29 -184 -2 -40 -12 -93 -24 -125
l-21 -54 28 -29 c29 -31 61 -51 68 -44 5 4 33 158 54 287 5 30 19 107 30 170
39 211 61 335 71 390 5 30 13 75 18 100 5 25 12 63 16 85 3 22 10 58 15 80 5
22 18 92 30 155 11 63 25 129 30 146 6 17 10 41 10 54 0 13 4 37 9 54 6 17 19
78 31 136 34 171 52 256 74 350 9 36 24 106 35 155 23 102 94 395 115 470 14
51 41 151 77 283 11 40 25 92 33 115 7 23 23 76 36 117 41 133 75 232 118 340
38 97 164 355 223 457 44 75 124 199 139 213 3 3 21 25 40 50 173 223 391 394
592 464 80 27 208 56 250 56 15 0 56 17 90 38 35 21 72 41 83 44 11 4 46 16
79 28 132 48 252 64 471 65 195 0 240 -5 450 -50 40 -9 165 -45 190 -55 11 -5
54 -22 96 -39 450 -180 779 -515 973 -991 29 -69 90 -255 100 -305 4 -16 11
-48 16 -70 50 -205 68 -344 82 -629 18 -364 -5 -836 -63 -1286 -6 -47 -15
-114 -19 -150 -12 -90 -28 -205 -39 -270 -5 -30 -14 -86 -21 -125 -6 -38 -15
-95 -20 -125 -5 -30 -14 -82 -19 -115 -6 -33 -15 -87 -21 -120 -5 -33 -15 -89
-20 -125 -20 -125 -41 -247 -95 -554 -8 -50 -12 -93 -7 -98 11 -11 99 52 112
80 5 13 10 35 10 50 0 15 7 61 15 102 9 41 20 102 25 135 8 55 13 86 40 245 5
30 14 82 20 115 13 71 23 133 49 320 11 77 29 183 40 235 24 118 57 363 71
535 6 72 15 164 20 205 40 327 54 641 40 902 -12 226 -21 304 -57 493 -13 72
-31 166 -39 210 -43 227 -172 546 -299 740 -74 112 -226 286 -325 374 -138
122 -318 232 -534 326 -81 36 -276 93 -386 114 -63 12 -137 26 -163 32 -57 11
-409 11 -452 -1z"/>
<path d="M5597 8174 c-43 -8 -96 -23 -117 -34 -22 -11 -40 -17 -40 -13 0 5 -6
1 -13 -8 -13 -18 -58 -44 -69 -41 -10 3 -63 -51 -60 -61 1 -4 -6 -11 -15 -14
-10 -4 -24 -15 -31 -25 -14 -19 -12 -20 -78 36 -23 20 -51 36 -63 36 -11 0
-21 5 -21 10 0 14 -106 12 -165 -4 l-50 -13 35 -6 c19 -3 58 -9 85 -12 99 -12
205 -66 205 -105 0 -6 5 -8 11 -5 6 4 13 -2 16 -13 3 -14 10 -19 21 -15 20 7
52 39 52 51 0 14 65 82 77 82 6 0 13 4 15 9 3 9 94 58 148 79 97 38 164 53
250 59 82 6 89 8 55 14 -61 12 -161 9 -248 -7z"/>
<path d="M4898 7873 c12 -2 32 -2 45 0 12 2 2 4 -23 4 -25 0 -35 -2 -22 -4z"/>
<path d="M4865 7840 c-11 -5 -32 -9 -47 -9 -46 -2 -151 -58 -213 -115 -65 -60
-63 -70 6 -32 56 31 139 64 207 82 64 17 273 19 317 3 18 -7 44 -9 59 -5 24 6
25 8 12 21 -8 8 -21 15 -28 15 -8 0 -23 6 -33 14 -11 8 -24 12 -30 9 -7 -2
-25 2 -41 8 -36 15 -182 22 -209 9z"/>
<path d="M5595 7825 c-112 -16 -153 -26 -234 -59 -36 -14 -71 -26 -78 -26 -21
0 -27 -28 -9 -45 11 -12 25 -14 51 -9 19 3 32 10 29 15 -3 5 2 6 11 3 8 -4 22
0 31 7 48 39 199 69 354 69 116 0 191 -10 305 -41 22 -6 54 -13 70 -16 77 -14
-57 55 -152 78 -53 12 -242 39 -267 38 -12 -1 -61 -7 -111 -14z"/>
<path d="M5240 7765 c0 -8 2 -15 4 -15 2 0 6 7 10 15 3 8 1 15 -4 15 -6 0 -10
-7 -10 -15z"/>
<path d="M5590 7625 c-30 -7 -71 -13 -90 -14 -50 -1 -220 -43 -220 -54 0 -6
22 -7 53 -3 269 33 418 29 607 -15 77 -19 242 -87 345 -144 55 -30 102 -55
106 -55 4 0 9 -4 11 -8 2 -5 26 -23 53 -42 28 -18 63 -44 78 -57 30 -24 47
-29 47 -14 0 22 -228 221 -254 221 -9 0 -16 4 -16 8 0 11 -78 62 -95 62 -8 0
-18 7 -23 17 -6 10 -16 14 -26 10 -9 -4 -15 -3 -12 2 6 9 -79 41 -108 41 -9 0
-16 5 -16 10 0 6 -12 10 -27 10 -26 0 -69 19 -48 21 6 0 1 4 -10 8 -12 5 -23
4 -27 -3 -5 -7 -17 -7 -41 2 -42 15 -214 13 -287 -3z"/>
<path d="M6770 7352 c0 -5 7 -15 15 -22 8 -7 15 -9 15 -6 0 4 -7 14 -15 22 -8
9 -15 11 -15 6z"/>
<path d="M5186 7283 c-42 -154 -78 -215 -203 -346 -52 -54 -102 -93 -353 -277
-142 -104 -204 -173 -305 -335 -34 -55 -75 -137 -75 -151 0 -25 -37 -35 -105
-28 -61 6 -95 22 -67 32 7 2 12 8 12 14 0 5 11 24 25 42 14 18 25 38 25 44 0
6 4 12 8 14 4 2 23 26 42 53 19 28 38 52 41 55 3 3 30 39 60 80 31 41 84 106
120 144 79 86 266 281 298 313 13 13 19 23 14 23 -5 0 -23 -15 -40 -32 -16
-18 -61 -63 -99 -99 -92 -89 -168 -169 -233 -249 -29 -36 -57 -67 -60 -70 -4
-3 -18 -21 -31 -40 -12 -19 -28 -39 -35 -45 -6 -5 -37 -50 -68 -100 -31 -49
-60 -95 -66 -101 -5 -6 -16 -25 -25 -42 -9 -18 -22 -32 -29 -32 -35 0 -47 -28
-77 -180 -16 -85 -30 -163 -29 -175 0 -19 1 -19 11 2 10 20 12 19 54 -28 24
-27 46 -60 50 -73 5 -21 -22 -122 -47 -181 -25 -56 -137 -493 -169 -660 -6
-33 -16 -78 -20 -100 -5 -22 -12 -56 -15 -75 -3 -19 -10 -57 -15 -85 -12 -59
-26 -159 -39 -270 -5 -44 -14 -109 -20 -145 -13 -75 -27 -172 -42 -280 -6 -41
-14 -105 -20 -142 -22 -164 -28 -208 -39 -288 -20 -146 -30 -232 -40 -339 -6
-57 -13 -107 -16 -112 -9 -15 15 -47 47 -63 61 -30 63 -26 79 134 20 187 66
546 99 755 5 33 14 97 19 143 6 45 14 87 17 92 3 5 10 42 16 82 23 156 29 195
39 258 12 73 26 164 40 260 5 36 14 90 19 120 6 30 14 74 17 98 6 39 24 60 24
27 0 -8 4 -15 9 -15 5 0 12 -21 15 -47 8 -78 23 -176 30 -203 3 -14 8 -38 10
-55 2 -16 6 -37 9 -45 3 -8 13 -40 21 -72 24 -84 22 -118 -15 -268 -4 -19 -13
-64 -19 -100 -89 -530 -100 -602 -99 -630 2 -26 7 -2 27 120 18 105 53 301 63
350 5 25 15 86 23 135 8 50 20 103 25 119 6 15 11 39 11 54 1 15 7 40 13 57
l13 29 43 -79 c39 -73 120 -192 163 -239 10 -11 19 -34 19 -50 1 -17 3 -23 6
-13 2 9 6 17 9 17 8 0 283 -282 327 -335 23 -27 50 -59 60 -70 10 -11 20 -30
23 -42 4 -13 11 -23 17 -23 6 0 26 -10 44 -22 38 -27 41 -54 18 -153 -16 -66
-30 -81 -92 -97 -23 -5 -48 -16 -54 -24 -6 -8 -19 -14 -28 -14 -9 0 -21 -4
-27 -8 -5 -5 -29 -14 -54 -21 -25 -8 -57 -18 -71 -23 -18 -6 -41 -6 -68 2 -29
7 -53 8 -74 2 -18 -6 -68 -15 -112 -21 -44 -7 -102 -16 -130 -21 -27 -5 -75
-12 -105 -15 -30 -3 -75 -9 -100 -13 -73 -13 -230 -124 -230 -163 0 -19 1 -20
175 -92 181 -75 297 -116 445 -158 41 -12 95 -27 119 -35 25 -8 58 -14 74 -14
26 0 29 3 23 23 -4 12 -13 51 -20 87 -7 36 -18 76 -24 90 -14 34 -35 161 -31
184 3 11 20 23 44 31 22 6 74 23 115 35 41 13 93 31 115 41 22 9 67 27 100 39
33 13 68 30 77 39 10 9 28 58 41 108 12 51 26 95 29 99 4 3 29 -1 55 -10 81
-28 252 -56 342 -56 101 1 183 18 253 55 27 14 52 24 55 22 2 -3 8 -31 13 -64
4 -32 14 -78 21 -102 13 -44 31 -56 144 -101 11 -4 36 -15 55 -23 53 -23 149
-57 203 -71 27 -8 53 -18 58 -23 9 -9 -6 -199 -19 -233 -3 -8 -5 -18 -4 -21 0
-3 -3 -35 -8 -70 -6 -42 -6 -66 1 -70 12 -7 142 31 357 103 169 57 164 53 182
148 5 25 18 86 28 135 11 50 30 137 42 195 12 58 26 121 30 140 22 100 73 348
109 530 22 113 45 228 51 255 5 28 19 109 30 180 11 72 24 157 30 190 5 33 14
101 20 150 6 50 15 120 20 157 6 37 10 89 10 117 0 81 21 205 39 225 9 10 25
22 36 27 65 30 80 46 102 113 26 77 50 224 40 249 -3 9 -24 21 -47 28 -22 7
-45 18 -51 26 -6 7 -22 13 -35 13 -14 0 -42 5 -63 12 -36 11 -38 15 -51 72
-14 66 -62 217 -88 281 -32 79 -121 246 -163 307 -117 171 -322 379 -524 534
-81 62 -256 174 -271 174 -19 0 -18 -37 2 -48 26 -15 113 -103 119 -121 2 -9
18 -22 35 -29 16 -8 30 -18 30 -23 0 -6 -4 -7 -10 -4 -6 4 -7 -1 -3 -11 20
-53 -379 63 -577 169 -181 97 -284 199 -326 325 -31 91 -48 98 -68 25z m124
-227 c120 -128 316 -230 630 -327 109 -34 301 -79 337 -79 35 0 57 -14 164
-106 158 -136 293 -314 384 -507 67 -141 132 -344 115 -361 -17 -17 -107 24
-136 61 -98 129 -225 173 -491 173 -81 -1 -193 -5 -247 -9 -98 -8 -100 -9
-130 -43 -17 -20 -44 -39 -61 -43 -16 -3 -52 -20 -78 -37 -45 -29 -53 -30
-115 -25 -122 10 -159 26 -213 88 -73 83 -156 115 -511 199 -48 11 -144 29
-215 41 -193 31 -185 29 -143 44 72 27 245 13 400 -33 87 -26 120 -40 267
-109 73 -34 93 -26 93 38 0 61 -17 80 -114 124 -140 64 -339 114 -458 115
-104 0 -222 -41 -296 -103 -38 -32 -51 -37 -93 -37 -32 0 -51 5 -55 13 -6 16
101 225 156 306 61 90 103 129 280 257 227 164 335 274 424 435 l18 34 16 -25
c9 -14 42 -51 72 -84z m888 -298 c18 -18 15 -27 -8 -21 -11 3 -20 12 -20 19 0
17 12 18 28 2z m-1613 -793 c60 -9 111 -18 113 -20 7 -7 -46 -25 -73 -25 -83
0 -247 -115 -247 -173 0 -27 64 -127 108 -169 37 -35 74 -48 133 -48 78 0 219
-27 377 -71 119 -34 133 -35 196 -12 26 9 50 14 53 11 11 -11 -43 -105 -75
-131 -40 -34 -86 -47 -184 -54 -119 -9 -361 24 -496 67 -14 4 -45 14 -70 21
-25 7 -65 24 -90 37 -105 57 -130 106 -130 254 0 156 21 241 69 285 50 44 141
52 316 28z m155 -121 c0 -3 -11 -20 -25 -39 -40 -52 -44 -135 -10 -217 6 -16
1 -18 -40 -18 -88 0 -121 17 -165 83 -22 33 -40 67 -40 76 0 33 85 95 155 112
37 9 125 11 125 3z m459 -25 c79 -40 111 -80 111 -142 0 -55 -13 -60 -36 -14
-28 54 -83 116 -137 152 -46 31 -49 35 -26 35 14 0 54 -14 88 -31z m-315 11
c21 -8 26 -16 26 -44 0 -25 -6 -38 -19 -46 -63 -33 -123 20 -91 81 12 21 44
25 84 9z m244 -100 c52 -37 99 -101 113 -152 13 -50 6 -59 -65 -83 -51 -17
-57 -18 -122 -2 -37 10 -70 19 -73 22 -3 3 7 16 21 28 48 39 68 86 68 155 0
34 4 62 8 62 5 0 28 -14 50 -30z m1539 14 c-3 -3 -12 -4 -19 -1 -8 3 -5 6 6 6
11 1 17 -2 13 -5z m-385 -85 c40 -6 105 -15 143 -21 312 -45 474 -97 529 -171
35 -48 26 -146 -27 -302 -43 -128 -89 -169 -205 -187 -73 -12 -268 0 -377 22
-367 74 -483 159 -473 346 l3 59 75 18 c101 25 311 34 393 17 103 -22 214 -68
357 -150 48 -28 78 -26 86 4 8 33 2 40 -64 83 -250 161 -480 192 -780 108 -34
-10 -65 -15 -69 -11 -9 9 15 109 34 135 29 42 88 60 200 60 57 1 135 -4 175
-10z m-651 -143 c19 -8 45 -26 58 -40 23 -24 23 -26 12 -120 -14 -121 -14
-224 0 -265 16 -47 29 -21 29 59 l1 65 28 -60 c38 -80 71 -109 178 -155 171
-74 416 -131 638 -150 167 -15 251 -6 322 31 30 16 57 29 59 29 9 0 -9 -88
-29 -140 -11 -30 -52 -109 -90 -175 -38 -66 -103 -181 -145 -255 -150 -269
-232 -369 -392 -480 -95 -65 -342 -195 -435 -229 -33 -12 -85 -36 -115 -53
-30 -17 -71 -40 -90 -51 -142 -80 -146 -81 -280 -81 -69 0 -150 6 -180 13
-139 31 -253 76 -304 120 -10 9 -53 57 -94 106 -41 50 -115 131 -166 180 -50
50 -123 126 -163 170 -231 258 -287 380 -342 740 -11 72 -32 195 -47 275 -31
167 -39 359 -15 382 11 11 14 11 18 0 13 -35 73 -97 113 -118 184 -96 500
-159 790 -158 249 1 273 14 364 205 55 117 68 135 115 156 37 16 122 16 162
-1z m1220 -1215 c-6 -11 -11 -39 -11 -63 0 -24 -4 -48 -9 -53 -5 -6 -12 -32
-15 -60 -11 -101 -17 -140 -26 -160 -5 -11 -11 -40 -14 -65 -3 -25 -10 -69
-15 -97 -6 -29 -16 -77 -21 -105 -6 -29 -15 -74 -20 -100 -6 -27 -14 -69 -20
-95 -5 -27 -13 -68 -19 -93 -17 -82 -32 -155 -41 -200 -18 -99 -22 -105 -66
-102 -21 2 -57 8 -79 14 -22 6 -53 13 -70 14 -16 1 -55 8 -85 14 -30 6 -100
15 -155 19 -94 8 -111 11 -160 31 -11 5 -57 23 -101 42 -45 18 -87 41 -93 50
-13 21 -26 147 -18 179 5 18 22 30 69 48 35 13 120 52 191 87 70 35 132 64
137 64 6 0 10 -11 10 -25 0 -14 4 -25 9 -25 4 0 7 12 5 26 -3 33 0 37 109 108
138 91 257 211 342 346 34 53 135 231 135 237 0 2 8 16 18 31 l17 26 3 -36 c2
-21 -2 -46 -7 -57z"/>
<path d="M5155 4906 c-20 -30 -30 -87 -21 -121 8 -31 57 -55 111 -55 30 0 44
-9 93 -60 69 -71 83 -73 171 -29 42 21 71 29 89 26 15 -3 43 -8 63 -12 29 -6
40 -3 63 17 33 28 45 96 25 143 -12 30 -12 30 -20 -27 -9 -66 -24 -98 -43 -98
-8 0 -30 7 -49 15 -52 21 -77 19 -143 -15 -32 -16 -63 -30 -69 -30 -5 0 -32
23 -60 51 -57 58 -79 69 -140 69 -67 0 -77 36 -38 136 9 23 -15 16 -32 -10z"/>
<path d="M4706 4479 c-28 -22 -34 -50 -13 -67 7 -6 34 -16 60 -21 25 -6 62
-20 81 -30 19 -11 54 -26 77 -35 24 -8 71 -25 104 -37 33 -12 74 -25 90 -29
17 -5 55 -15 85 -23 180 -47 282 -57 555 -58 138 0 258 0 267 0 44 2 24 80
-28 103 -20 10 -28 8 -48 -11 -24 -22 -28 -23 -203 -18 -310 9 -438 31 -726
127 -159 53 -190 67 -208 91 -24 35 -56 37 -93 8z"/>
<path d="M6552 3807 c-6 -50 -18 -132 -26 -182 -9 -49 -20 -121 -26 -160 -5
-38 -14 -97 -19 -130 -14 -95 -19 -157 -12 -150 3 4 11 41 17 83 35 234 45
303 54 357 6 33 15 96 20 140 5 44 12 90 15 101 4 12 2 24 -3 28 -6 3 -14 -32
-20 -87z"/>
<path d="M6181 3364 c0 -11 3 -14 6 -6 3 7 2 16 -1 19 -3 4 -6 -2 -5 -13z"/>
<path d="M6163 3225 c0 -22 2 -30 4 -17 2 12 2 30 0 40 -3 9 -5 -1 -4 -23z"/>
<path d="M6816 7298 c4 -7 15 -22 25 -33 48 -55 188 -269 226 -347 13 -27 26
-48 29 -48 11 0 -8 60 -33 108 -14 26 -33 61 -41 77 -25 49 -107 162 -160 220
-31 34 -61 48 -46 23z"/>
<path d="M4912 7162 c-62 -65 -102 -111 -102 -119 0 -6 22 16 132 135 12 12
18 22 14 22 -4 0 -23 -17 -44 -38z"/>
<path d="M4765 7000 c-16 -17 -25 -30 -21 -30 11 0 59 51 53 56 -2 2 -16 -10
-32 -26z"/>
<path d="M7111 6840 c0 -8 4 -24 9 -35 5 -13 9 -14 9 -5 0 8 -4 24 -9 35 -5
13 -9 14 -9 5z"/>
<path d="M6110 6780 c0 -5 5 -10 11 -10 5 0 7 5 4 10 -3 6 -8 10 -11 10 -2 0
-4 -4 -4 -10z"/>
<path d="M7312 4640 c0 -14 2 -19 5 -12 2 6 2 18 0 25 -3 6 -5 1 -5 -13z"/>
<path d="M3356 4529 c-8 -42 0 -50 9 -9 4 17 5 34 2 36 -2 3 -7 -10 -11 -27z"/>
<path d="M7282 4403 c-13 -107 -16 -180 -6 -170 4 4 11 42 15 84 5 43 11 102
15 131 4 30 3 52 -3 52 -5 0 -14 -44 -21 -97z"/>
<path d="M3311 4313 c0 -25 1 -26 9 -8 12 27 12 35 0 35 -5 0 -10 -12 -9 -27z"/>
<path d="M3292 4219 c-6 -34 -10 -65 -8 -67 7 -6 29 104 24 118 -2 7 -9 -16
-16 -51z"/>
<path d="M7247 4144 c-5 -57 -27 -195 -46 -299 -13 -69 -14 -115 -1 -95 5 8 7
22 5 30 -3 9 2 43 11 75 25 98 55 315 45 332 -6 11 -10 -3 -14 -43z"/>
<path d="M3272 4110 c0 -14 2 -19 5 -12 2 6 2 18 0 25 -3 6 -5 1 -5 -13z"/>
<path d="M3250 3980 c0 -22 2 -40 4 -40 2 0 6 18 8 40 2 22 0 40 -4 40 -5 0
-8 -18 -8 -40z"/>
<path d="M4322 3895 c0 -16 2 -22 5 -12 2 9 2 23 0 30 -3 6 -5 -1 -5 -18z"/>
<path d="M3233 3855 c0 -22 2 -30 4 -17 2 12 2 30 0 40 -3 9 -5 -1 -4 -23z"/>
<path d="M4312 3810 c0 -14 2 -19 5 -12 2 6 2 18 0 25 -3 6 -5 1 -5 -13z"/>
<path d="M3214 3746 c-3 -8 -4 -27 -2 -43 3 -23 5 -20 9 15 5 43 2 53 -7 28z"/>
<path d="M7172 3670 c0 -19 2 -27 5 -17 2 9 2 25 0 35 -3 9 -5 1 -5 -18z"/>
<path d="M3192 3570 c0 -19 2 -27 5 -17 2 9 2 25 0 35 -3 9 -5 1 -5 -18z"/>
<path d="M7144 3556 c-3 -21 -4 -39 -1 -42 3 -4 9 10 13 30 3 21 4 39 1 42 -3
4 -9 -10 -13 -30z"/>
<path d="M7126 3463 c-6 -14 -5 -15 5 -6 7 7 10 15 7 18 -3 3 -9 -2 -12 -12z"/>
<path d="M3931 3413 c0 -12 -4 -30 -7 -40 -5 -17 -5 -17 6 0 6 10 9 28 7 40
-4 22 -4 22 -6 0z"/>
<path d="M7112 3380 c0 -14 2 -19 5 -12 2 6 2 18 0 25 -3 6 -5 1 -5 -13z"/>
<path d="M3171 3364 c0 -11 3 -14 6 -6 3 7 2 16 -1 19 -3 4 -6 -2 -5 -13z"/>
<path d="M7092 3300 c0 -14 2 -19 5 -12 2 6 2 18 0 25 -3 6 -5 1 -5 -13z"/>
<path d="M3907 3240 c-3 -11 -1 -20 4 -20 5 0 9 9 9 20 0 11 -2 20 -4 20 -2 0
-6 -9 -9 -20z"/>
<path d="M3092 2838 c-15 -15 -16 -50 -2 -64 7 -7 -14 -48 -62 -125 -107 -169
-113 -175 -147 -162 -38 14 -57 3 -42 -24 14 -28 108 -86 126 -79 19 7 19 25
0 32 -22 9 -18 36 10 74 14 19 25 42 25 52 0 10 4 18 10 18 5 0 28 26 51 58
23 31 43 59 45 61 1 1 7 0 12 -3 6 -4 7 -18 1 -39 -31 -116 -55 -218 -64 -279
-12 -81 47 -92 81 -16 10 23 38 65 62 92 24 28 63 81 88 118 42 62 48 67 75
61 36 -7 37 6 7 48 -34 45 -85 74 -103 59 -20 -17 -19 -29 5 -48 18 -16 18
-19 4 -47 -27 -54 -49 -92 -66 -116 -10 -13 -34 -50 -55 -81 -20 -32 -41 -58
-45 -58 -10 0 1 82 13 95 5 5 9 24 9 42 0 18 9 56 20 85 27 72 51 174 44 192
-6 16 -68 66 -81 66 -5 0 -14 -5 -21 -12z"/>
<path d="M7328 2526 c-21 -8 -53 -26 -72 -42 -27 -23 -35 -37 -35 -65 -1 -50
28 -77 65 -60 24 11 26 15 20 55 -6 39 -4 46 16 60 31 22 70 20 96 -4 12 -12
22 -22 22 -24 0 -11 -80 -81 -112 -98 -43 -22 -58 -44 -58 -82 0 -105 108
-124 205 -35 30 28 51 39 73 39 35 0 76 36 67 58 -3 7 -5 18 -5 23 0 4 -7 6
-15 3 -8 -4 -15 -12 -15 -19 0 -47 -43 6 -105 129 -31 62 -83 84 -147 62z
m150 -151 c7 -14 12 -35 12 -46 0 -58 -68 -113 -133 -107 -27 2 -33 8 -35 31
-3 28 13 48 100 119 41 34 42 34 56 3z"/>
<path d="M3332 2450 c-28 -26 -29 -66 -2 -80 24 -13 60 -4 60 14 0 8 6 19 14
25 22 18 84 -11 92 -43 12 -50 3 -61 -50 -59 -26 1 -65 8 -87 17 -62 25 -97
21 -130 -15 -16 -17 -29 -37 -29 -44 0 -58 62 -111 148 -127 47 -9 63 -16 71
-35 17 -36 101 -28 101 10 0 5 -13 7 -30 4 -18 -4 -30 -2 -30 4 0 5 20 54 45
108 25 54 45 106 45 116 0 10 -10 33 -22 53 -39 64 -151 93 -196 52z m57 -176
c18 -8 44 -14 57 -14 29 0 30 -6 4 -47 -33 -54 -110 -57 -169 -7 -45 38 -39
74 14 87 23 5 45 1 94 -19z"/>
<path d="M3782 2434 c-49 -34 3 -113 53 -80 29 19 31 61 3 80 -12 9 -25 16
-28 16 -3 0 -16 -7 -28 -16z"/>
<path d="M6898 2443 c-21 -5 -32 -48 -18 -73 22 -40 90 -17 90 30 0 19 -7 33
-19 40 -20 10 -25 11 -53 3z"/>
<path d="M4077 2383 c-15 -15 -4 -29 40 -53 26 -14 50 -25 54 -25 18 0 19 -15
5 -44 -9 -16 -16 -38 -16 -49 0 -10 -6 -24 -12 -30 -7 -7 -31 -56 -53 -110
-46 -111 -57 -118 -139 -82 -46 19 -49 20 -62 3 -12 -16 -11 -20 7 -35 10 -9
43 -24 72 -33 28 -10 56 -21 62 -26 5 -5 16 -9 25 -9 8 0 35 -14 60 -30 48
-32 94 -39 104 -15 6 16 -19 45 -39 45 -8 0 -31 8 -52 17 -21 10 -39 18 -40
18 -4 1 41 120 47 125 6 5 27 56 55 130 9 25 21 50 25 55 5 6 12 30 16 53 6
39 5 42 -22 53 -16 6 -47 19 -69 30 -43 20 -58 23 -68 12z"/>
<path d="M3634 2336 c-7 -19 18 -43 51 -50 11 -3 32 -7 46 -10 15 -3 29 -12
32 -19 5 -14 -57 -194 -73 -211 -5 -5 -33 0 -68 12 -70 26 -92 27 -92 7 0 -27
38 -56 73 -53 18 1 42 -4 54 -10 12 -7 44 -12 72 -12 43 0 53 -4 67 -25 18
-28 51 -42 66 -27 17 17 -21 61 -64 74 -22 6 -42 17 -45 23 -2 7 7 42 21 80
14 37 23 71 20 77 -3 5 2 18 12 29 30 34 9 70 -56 96 -87 34 -109 38 -116 19z"/>
<path d="M6909 2288 c-71 -37 -90 -68 -41 -68 16 0 46 11 67 25 20 14 44 23
53 20 23 -8 108 -193 94 -207 -5 -5 -34 -22 -63 -36 -60 -31 -71 -48 -37 -61
26 -10 72 9 81 34 4 8 13 15 22 15 8 0 35 18 58 39 36 33 51 40 92 43 42 3 50
6 50 23 0 16 -8 21 -37 23 -23 2 -47 -3 -60 -12 -38 -27 -53 -19 -84 45 -16
34 -36 66 -44 73 -8 6 -17 20 -18 31 -10 54 -44 58 -133 13z"/>
<path d="M6378 2230 c-55 -9 -68 -16 -68 -35 0 -18 27 -26 65 -19 28 5 33 3
38 -18 4 -12 7 -35 7 -50 0 -27 -1 -28 -59 -28 -106 0 -161 -53 -161 -154 0
-48 5 -67 31 -107 37 -56 78 -79 142 -79 35 0 53 6 77 26 23 20 34 24 43 15
14 -14 49 -14 82 1 31 14 33 38 3 38 -49 0 -60 23 -77 155 -10 77 -21 135 -46
243 -6 24 -6 24 -77 12z m45 -217 c22 -13 38 -77 32 -122 -9 -64 -32 -91 -83
-98 -39 -5 -44 -3 -77 33 -31 33 -35 44 -35 90 0 57 24 99 63 107 23 5 86 -1
100 -10z"/>
<path d="M6664 2177 c-36 -19 -59 -37 -57 -44 6 -16 -9 -17 -25 -1 -8 8 -15 8
-27 -2 -19 -16 -19 -50 -1 -95 23 -53 67 -44 46 9 -13 36 -6 49 46 74 76 37
88 27 58 -53 -72 -190 -85 -255 -51 -255 7 0 30 9 52 20 21 11 54 25 74 31 84
27 131 52 131 69 0 33 -52 120 -71 120 -22 0 -22 -3 -9 -50 13 -47 4 -69 -36
-86 -97 -41 -111 -4 -54 138 22 55 40 113 40 129 0 25 -4 29 -27 29 -16 -1
-55 -15 -89 -33z"/>
<path d="M6038 2175 c-2 -3 -56 -12 -119 -20 -147 -19 -191 -31 -187 -53 2 -9
14 -18 26 -20 34 -5 48 -48 61 -182 15 -146 14 -170 -6 -192 -17 -19 -11 -48
11 -48 8 0 43 6 78 14 35 7 97 19 138 27 43 7 80 20 87 28 17 22 16 123 0 146
-22 29 -37 8 -37 -49 0 -33 -5 -58 -14 -65 -7 -6 -50 -16 -95 -23 -99 -14
-106 -9 -114 75 -6 64 4 77 61 77 24 0 32 -6 41 -30 5 -16 14 -30 19 -30 13 0
23 26 17 43 -3 6 -11 46 -18 87 -9 56 -16 76 -29 78 -14 3 -17 -4 -15 -39 l2
-43 -44 -9 c-52 -10 -56 -6 -65 71 -5 40 -3 59 6 67 7 7 49 18 93 25 110 17
119 17 122 0 11 -81 15 -90 33 -90 24 0 26 25 6 89 -12 41 -45 79 -58 66z
m-168 -255 c8 -5 12 -12 9 -15 -8 -8 -39 5 -39 16 0 11 11 11 30 -1z"/>
<path d="M4791 2156 c-13 -16 1 -31 34 -38 18 -3 20 -11 20 -88 -1 -47 -3
-140 -6 -207 l-5 -122 23 5 c15 4 31 0 43 -11 26 -24 149 -18 179 9 26 24 61
99 61 132 0 42 -21 107 -43 131 -33 37 -95 56 -147 44 -57 -13 -63 -5 -55 80
l6 66 -32 7 c-47 9 -65 7 -78 -8z m234 -196 c58 -22 84 -82 64 -149 -9 -32
-22 -47 -56 -67 -40 -23 -47 -24 -81 -12 -20 6 -42 16 -48 20 -22 16 -26 77
-9 133 22 77 63 101 130 75z"/>
<path d="M4358 2090 c-22 -17 -28 -30 -28 -60 0 -56 8 -70 41 -70 16 0 32 -6
35 -14 3 -8 19 -16 35 -20 32 -6 79 -47 79 -69 0 -31 -28 -52 -68 -51 -52 2
-116 33 -120 59 -12 84 -30 86 -55 7 -22 -72 -17 -94 21 -80 22 9 36 6 72 -11
77 -37 152 -25 184 30 14 24 15 35 6 63 -14 44 -35 61 -95 79 -53 15 -92 54
-82 81 10 27 35 30 80 10 54 -23 75 -41 79 -67 6 -42 34 -31 48 18 7 25 11 47
9 49 -22 18 -130 58 -167 62 -37 4 -53 0 -74 -16z"/>
<path d="M5212 1973 c-34 -3 -43 -8 -40 -21 2 -11 15 -18 36 -20 26 -3 36 -11
51 -40 14 -29 48 -124 76 -218 6 -19 -33 -94 -50 -94 -8 0 -15 6 -15 14 0 8
-13 24 -28 35 -59 42 -103 -9 -66 -77 32 -60 90 -68 135 -19 26 27 69 104 69
122 0 4 69 153 112 243 6 12 19 22 29 22 51 0 67 34 23 50 -28 11 -104 13
-128 4 -23 -9 -20 -41 4 -49 27 -9 26 -19 -12 -97 -34 -70 -45 -80 -55 -50 -3
9 -17 42 -30 71 l-25 55 27 22 c18 14 26 28 22 38 -6 16 -32 18 -135 9z"/>
</g>
</svg>
